<?xml version="1.0" encoding="utf-8"?>
<!-- Generator: Adobe Illustrator 16.0.0, SVG Export Plug-In . SVG Version: 6.00 Build 0)  -->
<!DOCTYPE svg PUBLIC "-//W3C//DTD SVG 1.1//EN" "http://www.w3.org/Graphics/SVG/1.1/DTD/svg11.dtd">
<svg version="1.1" id="Layer_1" xmlns="http://www.w3.org/2000/svg" xmlns:xlink="http://www.w3.org/1999/xlink" x="0px" y="0px"
	 width="960px" height="560px" viewBox="0 0 960 560" enable-background="new 0 0 960 560" xml:space="preserve">
<g>
	<path fill="#DD851D" d="M282.836,140.963c0,2.607-3.909,2.607-3.909,0C278.927,138.357,282.836,138.357,282.836,140.963"/>
	<path fill="#DD851D" d="M286.867,137.227c0,0,3.666,1.467,3.788,3.055s0,4.154,0,4.154s0.488,2.81,2.443,2.32
		c1.955-0.488,4.276-4.215,2.443-6.139s-6.354-6.2-6.354-6.2C281.92,132.34,286.867,137.227,286.867,137.227z M329.873,160.684
		h4.765v-3.787l-8.308-6.719h-5.132v4.643L329.873,160.684z M315.212,162.028h13.439l-3.91-2.688h-12.828L315.212,162.028z
		 M302.75,149.444c-6.353-1.589-9.529,0.428-9.529,0.428l-6.292,5.192c-2.851,2.708,2.016,2.321,2.016,2.321l19.548,0.122
		c7.819-0.122,7.758-3.115,7.758-3.115s0.163-0.418,0.795-2.26c1.466-4.277-1.833-1.955-1.833-1.955
		C310.386,154.209,302.75,149.444,302.75,149.444z M282.286,147.693c0,0,2.434,0.56,3.421,0c0,0,0.662-1.792,1.639-2.77
		c0.978-0.977,0-2.576,0-2.576l-2.932-4.266c-2.077-1.955-3.909,0-3.909,0l-4.766,4.521c-0.58,0.466-0.438,2.188,1.1,3.299
		C279.049,147.49,282.286,147.693,282.286,147.693 M259.379,160.807l14.355,0.061l11.301-10.445c0,0-6.354-0.488-10.019-2.932
		c-3.665-2.444-0.244-5.987-0.244-5.987s2.565-2.077,7.086-6.964s8.308-1.1,8.308-1.1l9.163,9.529c0,0,9.896,9.652,14.172,4.521
		c4.276-5.132,15.272-6.109,15.272-6.109l1.1,2.566c-2.566-0.367-13.439,3.176-6.72,3.543c6.72,0.365,11.606,6.719,11.606,6.719
		c7.452,9.529-0.611,10.263-0.611,10.263s-10.507,0-17.471,0s-5.864-1.222-7.452-2.81c-1.589-1.589-4.276-1.589-4.276-1.589
		s-9.651,0-11.484,0c-1.832,0-5.62,0.122-6.598,1.833c-0.977,1.71-4.275,2.565-4.275,2.565h-23.213V160.807z"/>
	<path fill="#DD851D" d="M398.045,177.178V162.15l-5.742-10.141l0.54,15.658l-2.81,9.53L398.045,177.178z M417.461,161.835
		l9.377,12.624l5.793,4.287l-0.621-4.002l-11.515-13.398l-4.785-3.055L417.461,161.835z M397.159,132.441l0.062,0.917
		c0.214,3.319,6.343,14.538,17.959,20.006c8.063,3.798,9.855,8.054,9.855,8.054l0.662-0.906l-13.633-18.683l-7.839-9.306
		L397.159,132.441z M380.574,108.965l-6.383,2.158l9.529,0.865l2.474,0.295l0.184,17.491l15.791,30.747l2.087,1.123l1.1-0.105
		l-0.265-6.709l-13.531-20.209l-0.162-5.865h9.051v-1.791l-5.956-7.666l-0.978-10.345L380.574,108.965z M382.203,116.213
		c0.163-1.466-1.629-1.791-1.629-1.791h-12.868c0,0-2.444-1.955-1.304-2.933s17.43-6.027,17.43-6.027h12.055
		c0,0,2.118-0.651,2.118,4.479s0.163,8.553,5.05,13.928c4.887,5.376,4.887,5.376,4.887,5.376l30.299,43.005
		c0,0,0.163,3.096-2.932,2.117c-3.096-0.977,6.516,15.639-9.285,3.747c0,0-10.426-12.054-14.01-20.524s-1.781,9.121-1.781,9.121
		s1.629,6.191-6.842,0.979v9.773h12.543l-0.163,3.258h-45.784V177.3h12.869c0,0,1.954-0.489,3.095-2.28
		c1.141-1.792,2.443-8.797,2.443-8.797l-0.163-19.385c0,0,1.304-1.955-6.353-15.149C381.878,131.688,382.041,117.68,382.203,116.213
		z"/>
	<path fill="#DD851D" d="M302.994,210.266c0-4.275,0-2.198-3.298-7.696c-3.299-5.497-3.554,0.61-3.554,0.61
		s-3.288,25.779-3.899,30.544c-0.61,4.765,1.466,5.497,1.466,5.497l9.285,4.928C302.994,244.148,302.994,214.543,302.994,210.266z
		 M302.872,250.92c0,0-5.223-3.31-10.263-5.702c-7.004-3.339-6.353-9.54-6.353-9.54s5.131-30.543,5.376-32.029
		c0.244-1.486,0.488-9.756,6.597-8.287c6.109,1.469,9.53,12.197,9.53,12.197v60.129h-4.643L302.872,250.92z"/>
	<path fill="#DD851D" d="M354.612,223.156c4.032-0.611,9.103,5.436,13.256,8.612c4.154,3.175,10.568,3.36,16.188,0.489
		c4.856-2.484,16.555-0.855,16.555-0.855l7.94,2.321c0,0-3.787-1.67-4.765-2.749c-0.977-1.079-15.353-3.91-23.66-0.611
		c-8.309,3.299-12.869-3.115-16.046-5.6c-3.177-2.494-3.543-2.667-5.498-3.93c-1.242-0.794-3.176-0.061-3.176-0.061
		S350.581,223.767,354.612,223.156z M432.62,237.938c0,0-15.638,4.347-27.122-1.028s-19.304-1.222-19.304-1.222
		c-5.742,3.788-17.104,2.321-19.792-0.854c-2.688-3.178-7.452-7.209-11.362-7.087c-3.909,0.122-14.172-6.841-5.62-8.308
		c8.553-1.467-0.488-4.887-0.488-4.887c-4.031-5.254,1.466-5.62,5.62-2.443c4.153,3.176,5.376,0.366,5.376,0.366
		c9.651-6.231,7.94,0.978,7.94,0.978s-0.977,1.588-4.153,2.932s0,3.666,0,3.666s1.1,0.855,5.986,4.887s6.108,3.665,8.797,2.443
		c2.688-1.222,8.674-1.955,12.583-1.832c3.91,0.121,12.34,1.465,18.326,4.52s7.331,3.055,7.331,3.055s8.43,0,12.461,0
		c4.032,0,5.62,2.555,5.62,2.555L432.62,237.938z"/>
	<path fill="#DD851D" d="M282.836,327.84c0,2.607-3.909,2.607-3.909,0C278.927,325.234,282.836,325.234,282.836,327.84"/>
	<path fill="#DD851D" d="M286.867,324.104c0,0,3.666,1.467,3.788,3.055s0,4.154,0,4.154s0.488,2.81,2.443,2.32
		c1.955-0.488,4.276-4.215,2.443-6.139s-6.354-6.2-6.354-6.2C281.92,319.217,286.867,324.104,286.867,324.104z M329.873,347.561
		h4.765v-3.787l-8.308-6.719h-5.132v4.643L329.873,347.561z M315.212,348.905h13.439l-3.91-2.688h-12.828L315.212,348.905z
		 M302.75,336.321c-6.353-1.589-9.529,0.428-9.529,0.428l-6.292,5.192c-2.851,2.708,2.016,2.321,2.016,2.321l19.548,0.122
		c7.819-0.122,7.758-3.115,7.758-3.115s0.163-0.418,0.795-2.26c1.466-4.277-1.833-1.955-1.833-1.955
		C310.386,341.086,302.75,336.321,302.75,336.321z M282.286,334.57c0,0,2.434,0.56,3.421,0c0,0,0.662-1.792,1.639-2.77
		c0.978-0.977,0-2.576,0-2.576l-2.932-4.266c-2.077-1.955-3.909,0-3.909,0l-4.766,4.521c-0.58,0.466-0.438,2.188,1.1,3.299
		C279.049,334.367,282.286,334.57,282.286,334.57 M259.379,347.684l14.355,0.061l11.301-10.445c0,0-6.354-0.488-10.019-2.932
		c-3.665-2.444-0.244-5.987-0.244-5.987s2.565-2.077,7.086-6.964s8.308-1.1,8.308-1.1l9.163,9.529c0,0,9.896,9.652,14.172,4.521
		c4.276-5.132,15.272-6.109,15.272-6.109l1.1,2.566c-2.566-0.367-13.439,3.176-6.72,3.543c6.72,0.365,11.606,6.719,11.606,6.719
		c7.452,9.529-0.611,10.263-0.611,10.263s-10.507,0-17.471,0s-5.864-1.222-7.452-2.81c-1.589-1.589-4.276-1.589-4.276-1.589
		s-9.651,0-11.484,0c-1.832,0-5.62,0.122-6.598,1.833c-0.977,1.71-4.275,2.565-4.275,2.565h-23.213V347.684z"/>
	<path fill="#DD851D" d="M398.045,364.055v-15.027l-5.742-10.141l0.54,15.658l-2.81,9.53L398.045,364.055z M417.461,348.712
		l9.377,12.624l5.793,4.287l-0.621-4.002l-11.515-13.398l-4.785-3.055L417.461,348.712z M397.159,319.318l0.062,0.917
		c0.214,3.319,6.343,14.538,17.959,20.006c8.063,3.798,9.855,8.054,9.855,8.054l0.662-0.906l-13.633-18.683l-7.839-9.306
		L397.159,319.318z M380.574,295.842L374.191,298l9.529,0.865l2.474,0.295l0.184,17.491l15.791,30.747l2.087,1.123l1.1-0.105
		l-0.265-6.709l-13.531-20.209l-0.162-5.865h9.051v-1.791l-5.956-7.666l-0.978-10.345L380.574,295.842z M382.203,303.09
		c0.163-1.466-1.629-1.791-1.629-1.791h-12.868c0,0-2.444-1.955-1.304-2.933s17.43-6.027,17.43-6.027h12.055
		c0,0,2.118-0.651,2.118,4.479s0.163,8.553,5.05,13.928c4.887,5.376,4.887,5.376,4.887,5.376l30.299,43.005
		c0,0,0.163,3.096-2.932,2.117c-3.096-0.977,6.516,15.639-9.285,3.747c0,0-10.426-12.054-14.01-20.524s-1.781,9.121-1.781,9.121
		s1.629,6.191-6.842,0.979v9.773h12.543l-0.163,3.258h-45.784v-3.421h12.869c0,0,1.954-0.489,3.095-2.28
		c1.141-1.792,2.443-8.797,2.443-8.797l-0.163-19.385c0,0,1.304-1.955-6.353-15.149C381.878,318.565,382.041,304.557,382.203,303.09
		z"/>
	<path fill="#DD851D" d="M391.448,298.428c0,2.605-3.91,2.605-3.91,0C387.538,295.82,391.448,295.82,391.448,298.428"/>
	<path fill="#DD851D" d="M302.994,397.143c0-4.275,0-2.198-3.298-7.696c-3.299-5.497-3.554,0.61-3.554,0.61
		s-3.288,25.779-3.899,30.544c-0.61,4.765,1.466,5.497,1.466,5.497l9.285,4.928C302.994,431.025,302.994,401.42,302.994,397.143z
		 M302.872,437.797c0,0-5.223-3.31-10.263-5.702c-7.004-3.339-6.353-9.54-6.353-9.54s5.131-30.543,5.376-32.029
		c0.244-1.486,0.488-9.756,6.597-8.287c6.109,1.469,9.53,12.197,9.53,12.197v60.129h-4.643L302.872,437.797z"/>
	<path fill="#DD851D" d="M354.612,410.033c4.032-0.611,9.103,5.436,13.256,8.612c4.154,3.175,10.568,3.36,16.188,0.489
		c4.856-2.484,16.555-0.855,16.555-0.855l7.94,2.321c0,0-3.787-1.67-4.765-2.749c-0.977-1.079-15.353-3.91-23.66-0.611
		c-8.309,3.299-12.869-3.115-16.046-5.6c-3.177-2.494-3.543-2.667-5.498-3.93c-1.242-0.794-3.176-0.061-3.176-0.061
		S350.581,410.644,354.612,410.033z M432.62,424.815c0,0-15.638,4.347-27.122-1.028s-19.304-1.222-19.304-1.222
		c-5.742,3.788-17.104,2.321-19.792-0.854c-2.688-3.178-7.452-7.209-11.362-7.087c-3.909,0.122-14.172-6.841-5.62-8.308
		c8.553-1.467-0.488-4.887-0.488-4.887c-4.031-5.254,1.466-5.62,5.62-2.443c4.153,3.176,5.376,0.366,5.376,0.366
		c9.651-6.231,7.94,0.978,7.94,0.978s-0.977,1.588-4.153,2.932s0,3.666,0,3.666s1.1,0.855,5.986,4.887s6.108,3.665,8.797,2.443
		c2.688-1.222,8.674-1.955,12.583-1.832c3.91,0.121,12.34,1.465,18.326,4.52s7.331,3.055,7.331,3.055s8.43,0,12.461,0
		c4.032,0,5.62,2.555,5.62,2.555L432.62,424.815z"/>
	<path fill="#DD851D" d="M77.789,327.84c0,2.607-3.909,2.607-3.909,0C73.88,325.234,77.789,325.234,77.789,327.84"/>
	<path fill="#DD851D" d="M81.82,324.104c0,0,3.666,1.467,3.788,3.055s0,4.154,0,4.154s0.488,2.81,2.443,2.32
		c1.955-0.488,4.276-4.215,2.443-6.139s-6.354-6.2-6.354-6.2C76.873,319.217,81.82,324.104,81.82,324.104z M124.826,347.561h4.765
		v-3.787l-8.308-6.719h-5.132v4.643L124.826,347.561z M110.165,348.905h13.439l-3.91-2.688h-12.828L110.165,348.905z
		 M97.703,336.321c-6.353-1.589-9.529,0.428-9.529,0.428l-6.292,5.192c-2.851,2.708,2.016,2.321,2.016,2.321l19.548,0.122
		c7.819-0.122,7.758-3.115,7.758-3.115s0.163-0.418,0.795-2.26c1.466-4.277-1.833-1.955-1.833-1.955
		C105.339,341.086,97.703,336.321,97.703,336.321z M77.239,334.57c0,0,2.434,0.56,3.421,0c0,0,0.662-1.792,1.639-2.77
		c0.978-0.977,0-2.576,0-2.576l-2.932-4.266c-2.077-1.955-3.909,0-3.909,0l-4.766,4.521c-0.58,0.466-0.438,2.188,1.1,3.299
		C74.002,334.367,77.239,334.57,77.239,334.57 M54.332,347.684l14.355,0.061l11.301-10.445c0,0-6.354-0.488-10.019-2.932
		c-3.665-2.444-0.244-5.987-0.244-5.987s2.565-2.077,7.086-6.964s8.308-1.1,8.308-1.1l9.163,9.529c0,0,9.896,9.652,14.172,4.521
		c4.276-5.132,15.272-6.109,15.272-6.109l1.1,2.566c-2.566-0.367-13.439,3.176-6.72,3.543c6.72,0.365,11.606,6.719,11.606,6.719
		c7.452,9.529-0.611,10.263-0.611,10.263s-10.507,0-17.471,0s-5.864-1.222-7.452-2.81c-1.589-1.589-4.276-1.589-4.276-1.589
		s-9.651,0-11.484,0c-1.832,0-5.62,0.122-6.598,1.833c-0.977,1.71-4.275,2.565-4.275,2.565H54.332V347.684z"/>
	<path fill="#DD851D" d="M192.998,364.055v-15.027l-5.742-10.141l0.54,15.658l-2.81,9.53L192.998,364.055z M212.414,348.712
		l9.377,12.624l5.793,4.287l-0.621-4.002l-11.515-13.398l-4.785-3.055L212.414,348.712z M192.112,319.318l0.062,0.917
		c0.214,3.319,6.343,14.538,17.959,20.006c8.063,3.798,9.855,8.054,9.855,8.054l0.662-0.906l-13.633-18.683l-7.839-9.306
		L192.112,319.318z M175.527,295.842L169.145,298l9.529,0.865l2.474,0.295l0.184,17.491l15.791,30.747l2.087,1.123l1.1-0.105
		l-0.265-6.709l-13.531-20.209l-0.162-5.865h9.051v-1.791l-5.956-7.666l-0.978-10.345L175.527,295.842z M177.156,303.09
		c0.163-1.466-1.629-1.791-1.629-1.791h-12.868c0,0-2.444-1.955-1.304-2.933s17.43-6.027,17.43-6.027h12.055
		c0,0,2.118-0.651,2.118,4.479s0.163,8.553,5.05,13.928c4.887,5.376,4.887,5.376,4.887,5.376l30.299,43.005
		c0,0,0.163,3.096-2.932,2.117c-3.096-0.977,6.516,15.639-9.285,3.747c0,0-10.426-12.054-14.01-20.524s-1.781,9.121-1.781,9.121
		s1.629,6.191-6.842,0.979v9.773h12.543l-0.163,3.258h-45.784v-3.421h12.869c0,0,1.954-0.489,3.095-2.28
		c1.141-1.792,2.443-8.797,2.443-8.797l-0.163-19.385c0,0,1.304-1.955-6.353-15.149C176.831,318.565,176.994,304.557,177.156,303.09
		z"/>
	<path fill="#DD851D" d="M186.401,298.428c0,2.605-3.91,2.605-3.91,0C182.491,295.82,186.401,295.82,186.401,298.428"/>
	<path fill="#DD851D" d="M97.947,397.143c0-4.275,0-2.198-3.298-7.696c-3.299-5.497-3.554,0.61-3.554,0.61
		s-3.288,25.779-3.899,30.544c-0.61,4.765,1.466,5.497,1.466,5.497l9.285,4.928C97.947,431.025,97.947,401.42,97.947,397.143z
		 M97.825,437.797c0,0-5.223-3.31-10.263-5.702c-7.004-3.339-6.353-9.54-6.353-9.54s5.131-30.543,5.376-32.029
		c0.244-1.486,0.488-9.756,6.597-8.287c6.109,1.469,9.53,12.197,9.53,12.197v60.129H98.07L97.825,437.797z"/>
	<path fill="#DD851D" d="M149.565,410.033c4.032-0.611,9.103,5.436,13.256,8.612c4.154,3.175,10.568,3.36,16.188,0.489
		c4.856-2.484,16.555-0.855,16.555-0.855l7.94,2.321c0,0-3.787-1.67-4.765-2.749c-0.977-1.079-15.353-3.91-23.66-0.611
		c-8.309,3.299-12.869-3.115-16.046-5.6c-3.177-2.494-3.543-2.667-5.498-3.93c-1.242-0.794-3.176-0.061-3.176-0.061
		S145.534,410.644,149.565,410.033z M227.573,424.815c0,0-15.638,4.347-27.122-1.028s-19.304-1.222-19.304-1.222
		c-5.742,3.788-17.104,2.321-19.792-0.854c-2.688-3.178-7.452-7.209-11.362-7.087c-3.909,0.122-14.172-6.841-5.62-8.308
		c8.553-1.467-0.488-4.887-0.488-4.887c-4.031-5.254,1.466-5.62,5.62-2.443c4.153,3.176,5.376,0.366,5.376,0.366
		c9.651-6.231,7.94,0.978,7.94,0.978s-0.977,1.588-4.153,2.932s0,3.666,0,3.666s1.1,0.855,5.986,4.887s6.108,3.665,8.797,2.443
		c2.688-1.222,8.674-1.955,12.583-1.832c3.91,0.121,12.34,1.465,18.326,4.52s7.331,3.055,7.331,3.055s8.43,0,12.461,0
		c4.032,0,5.62,2.555,5.62,2.555L227.573,424.815z"/>
</g>
<g>
	<path fill="#DD851D" d="M491.128,140.963c0,2.607-3.909,2.607-3.909,0C487.219,138.357,491.128,138.357,491.128,140.963"/>
	<path fill="#DD851D" d="M495.16,137.227c0,0,3.665,1.467,3.787,3.055s0,4.154,0,4.154s0.489,2.81,2.443,2.32
		c1.955-0.488,4.276-4.215,2.443-6.139c-1.832-1.924-6.353-6.2-6.353-6.2C490.212,132.34,495.16,137.227,495.16,137.227z
		 M538.165,160.684h4.765v-3.787l-8.308-6.719h-5.131v4.643L538.165,160.684z M523.504,162.028h13.439l-3.909-2.688h-12.828
		L523.504,162.028z M511.043,149.444c-6.354-1.589-9.53,0.428-9.53,0.428l-6.291,5.192c-2.852,2.708,2.016,2.321,2.016,2.321
		l19.548,0.122c7.818-0.122,7.758-3.115,7.758-3.115s0.163-0.418,0.794-2.26c1.466-4.277-1.833-1.955-1.833-1.955
		C518.679,154.209,511.043,149.444,511.043,149.444z M490.579,147.693c0,0,2.433,0.56,3.42,0c0,0,0.662-1.792,1.64-2.77
		c0.978-0.977,0-2.576,0-2.576l-2.933-4.266c-2.076-1.955-3.909,0-3.909,0l-4.765,4.521c-0.58,0.466-0.438,2.188,1.1,3.299
		C487.341,147.49,490.579,147.693,490.579,147.693 M467.671,160.807l14.355,0.061l11.301-10.445c0,0-6.353-0.488-10.018-2.932
		c-3.665-2.444-0.244-5.987-0.244-5.987s2.565-2.077,7.086-6.964s8.308-1.1,8.308-1.1l9.163,9.529c0,0,9.896,9.652,14.172,4.521
		c4.276-5.132,15.271-6.109,15.271-6.109l1.1,2.566c-2.565-0.367-13.439,3.176-6.72,3.543c6.72,0.365,11.606,6.719,11.606,6.719
		c7.453,9.529-0.61,10.263-0.61,10.263s-10.507,0-17.471,0s-5.864-1.222-7.453-2.81c-1.588-1.589-4.275-1.589-4.275-1.589
		s-9.652,0-11.484,0c-1.833,0-5.62,0.122-6.598,1.833c-0.978,1.71-4.276,2.565-4.276,2.565h-23.213V160.807z"/>
	<path fill="#DD851D" d="M606.338,177.178V162.15l-5.742-10.141l0.539,15.658l-2.81,9.53L606.338,177.178z M625.753,161.835
		l9.377,12.624l5.793,4.287l-0.621-4.002l-11.515-13.398l-4.785-3.055L625.753,161.835z M605.452,132.441l0.061,0.917
		c0.214,3.319,6.343,14.538,17.96,20.006c8.063,3.798,9.855,8.054,9.855,8.054l0.661-0.906l-13.632-18.683l-7.84-9.306
		L605.452,132.441z M588.867,108.965l-6.384,2.158l9.529,0.865l2.475,0.295l0.183,17.491l15.791,30.747l2.087,1.123l1.1-0.105
		l-0.265-6.709l-13.53-20.209l-0.163-5.865h9.051v-1.791l-5.956-7.666l-0.977-10.345L588.867,108.965z M590.496,116.213
		c0.163-1.466-1.629-1.791-1.629-1.791h-12.869c0,0-2.443-1.955-1.303-2.933c1.14-0.978,17.43-6.027,17.43-6.027h12.055
		c0,0,2.117-0.651,2.117,4.479s0.163,8.553,5.05,13.928c4.887,5.376,4.887,5.376,4.887,5.376l30.3,43.005
		c0,0,0.162,3.096-2.933,2.117c-3.095-0.977,6.516,15.639-9.285,3.747c0,0-10.426-12.054-14.009-20.524
		c-3.584-8.471-1.782,9.121-1.782,9.121s1.629,6.191-6.842,0.979v9.773h12.543l-0.162,3.258h-45.785V177.3h12.869
		c0,0,1.955-0.489,3.095-2.28c1.141-1.792,2.444-8.797,2.444-8.797l-0.163-19.385c0,0,1.303-1.955-6.354-15.149
		C590.17,131.688,590.333,117.68,590.496,116.213z"/>
	<path fill="#DD851D" d="M511.287,210.266c0-4.275,0-2.198-3.299-7.696c-3.299-5.497-3.553,0.61-3.553,0.61
		s-3.289,25.779-3.899,30.544c-0.611,4.765,1.466,5.497,1.466,5.497l9.285,4.928C511.287,244.148,511.287,214.543,511.287,210.266z
		 M511.165,250.92c0,0-5.223-3.31-10.263-5.702c-7.005-3.339-6.354-9.54-6.354-9.54s5.132-30.543,5.376-32.029
		s0.488-9.756,6.598-8.287c6.108,1.469,9.529,12.197,9.529,12.197v60.129h-4.643L511.165,250.92z"/>
	<path fill="#DD851D" d="M562.905,223.156c4.031-0.611,9.102,5.436,13.256,8.612c4.153,3.175,10.567,3.36,16.188,0.489
		c4.856-2.484,16.555-0.855,16.555-0.855l7.941,2.321c0,0-3.787-1.67-4.765-2.749s-15.354-3.91-23.661-0.611
		s-12.869-3.115-16.045-5.6c-3.177-2.494-3.543-2.667-5.498-3.93c-1.242-0.794-3.177-0.061-3.177-0.061
		S558.873,223.767,562.905,223.156z M640.913,237.938c0,0-15.639,4.347-27.123-1.028s-19.303-1.222-19.303-1.222
		c-5.742,3.788-17.104,2.321-19.792-0.854c-2.688-3.178-7.453-7.209-11.362-7.087c-3.91,0.122-14.172-6.841-5.62-8.308
		s-0.488-4.887-0.488-4.887c-4.032-5.254,1.466-5.62,5.619-2.443c4.154,3.176,5.376,0.366,5.376,0.366
		c9.651-6.231,7.941,0.978,7.941,0.978s-0.978,1.588-4.154,2.932c-3.176,1.344,0,3.666,0,3.666s1.1,0.855,5.986,4.887
		c4.888,4.031,6.109,3.665,8.797,2.443s8.675-1.955,12.584-1.832c3.909,0.121,12.34,1.465,18.326,4.52s7.33,3.055,7.33,3.055
		s8.43,0,12.462,0c4.031,0,5.62,2.555,5.62,2.555L640.913,237.938z"/>
	<path fill="#DD851D" d="M704.631,140.963c0,2.607-3.909,2.607-3.909,0C700.722,138.357,704.631,138.357,704.631,140.963"/>
	<path fill="#DD851D" d="M708.662,137.227c0,0,3.666,1.467,3.788,3.055s0,4.154,0,4.154s0.488,2.81,2.443,2.32
		c1.955-0.488,4.276-4.215,2.443-6.139s-6.354-6.2-6.354-6.2C703.715,132.34,708.662,137.227,708.662,137.227z M751.668,160.684
		h4.765v-3.787l-8.308-6.719h-5.132v4.643L751.668,160.684z M737.007,162.028h13.439l-3.91-2.688h-12.828L737.007,162.028z
		 M724.545,149.444c-6.353-1.589-9.529,0.428-9.529,0.428l-6.292,5.192c-2.851,2.708,2.016,2.321,2.016,2.321l19.548,0.122
		c7.819-0.122,7.758-3.115,7.758-3.115s0.163-0.418,0.795-2.26c1.466-4.277-1.833-1.955-1.833-1.955
		C732.181,154.209,724.545,149.444,724.545,149.444z M704.081,147.693c0,0,2.434,0.56,3.421,0c0,0,0.662-1.792,1.639-2.77
		c0.978-0.977,0-2.576,0-2.576l-2.932-4.266c-2.077-1.955-3.909,0-3.909,0l-4.766,4.521c-0.58,0.466-0.438,2.188,1.1,3.299
		C700.844,147.49,704.081,147.693,704.081,147.693 M681.174,160.807l14.355,0.061l11.301-10.445c0,0-6.354-0.488-10.019-2.932
		c-3.665-2.444-0.244-5.987-0.244-5.987s2.565-2.077,7.086-6.964s8.308-1.1,8.308-1.1l9.163,9.529c0,0,9.896,9.652,14.172,4.521
		c4.276-5.132,15.272-6.109,15.272-6.109l1.1,2.566c-2.566-0.367-13.439,3.176-6.72,3.543c6.72,0.365,11.606,6.719,11.606,6.719
		c7.452,9.529-0.611,10.263-0.611,10.263s-10.507,0-17.471,0s-5.864-1.222-7.452-2.81c-1.589-1.589-4.276-1.589-4.276-1.589
		s-9.651,0-11.484,0c-1.832,0-5.62,0.122-6.598,1.833c-0.977,1.71-4.275,2.565-4.275,2.565h-23.213V160.807z"/>
	<path fill="#DD851D" d="M819.84,177.178V162.15l-5.742-10.141l0.54,15.658l-2.81,9.53L819.84,177.178z M839.256,161.835
		l9.377,12.624l5.793,4.287l-0.621-4.002l-11.515-13.398l-4.785-3.055L839.256,161.835z M818.954,132.441l0.062,0.917
		c0.214,3.319,6.343,14.538,17.959,20.006c8.063,3.798,9.855,8.054,9.855,8.054l0.662-0.906l-13.633-18.683l-7.839-9.306
		L818.954,132.441z M802.369,108.965l-6.383,2.158l9.529,0.865l2.474,0.295l0.184,17.491l15.791,30.747l2.087,1.123l1.1-0.105
		l-0.265-6.709l-13.531-20.209l-0.162-5.865h9.051v-1.791l-5.956-7.666l-0.978-10.345L802.369,108.965z M803.998,116.213
		c0.163-1.466-1.629-1.791-1.629-1.791h-12.868c0,0-2.444-1.955-1.304-2.933s17.43-6.027,17.43-6.027h12.055
		c0,0,2.118-0.651,2.118,4.479s0.163,8.553,5.05,13.928c4.887,5.376,4.887,5.376,4.887,5.376l30.299,43.005
		c0,0,0.163,3.096-2.932,2.117c-3.096-0.977,6.516,15.639-9.285,3.747c0,0-10.426-12.054-14.01-20.524s-1.781,9.121-1.781,9.121
		s1.629,6.191-6.842,0.979v9.773h12.543l-0.163,3.258h-45.784V177.3h12.869c0,0,1.954-0.489,3.095-2.28
		c1.141-1.792,2.443-8.797,2.443-8.797l-0.163-19.385c0,0,1.304-1.955-6.353-15.149C803.673,131.688,803.836,117.68,803.998,116.213
		z"/>
	<path fill="#DD851D" d="M724.789,210.266c0-4.275,0-2.198-3.298-7.696c-3.299-5.497-3.554,0.61-3.554,0.61
		s-3.288,25.779-3.899,30.544c-0.61,4.765,1.466,5.497,1.466,5.497l9.285,4.928C724.789,244.148,724.789,214.543,724.789,210.266z
		 M724.667,250.92c0,0-5.223-3.31-10.263-5.702c-7.004-3.339-6.353-9.54-6.353-9.54s5.131-30.543,5.376-32.029
		c0.244-1.486,0.488-9.756,6.597-8.287c6.109,1.469,9.53,12.197,9.53,12.197v60.129h-4.643L724.667,250.92z"/>
	<path fill="#DD851D" d="M776.407,223.156c4.032-0.611,9.103,5.436,13.256,8.612c4.154,3.175,10.568,3.36,16.188,0.489
		c4.856-2.484,16.555-0.855,16.555-0.855l7.94,2.321c0,0-3.787-1.67-4.765-2.749c-0.977-1.079-15.353-3.91-23.66-0.611
		c-8.309,3.299-12.869-3.115-16.046-5.6c-3.177-2.494-3.543-2.667-5.498-3.93c-1.242-0.794-3.176-0.061-3.176-0.061
		S772.376,223.767,776.407,223.156z M854.415,237.938c0,0-15.638,4.347-27.122-1.028s-19.304-1.222-19.304-1.222
		c-5.742,3.788-17.104,2.321-19.792-0.854c-2.688-3.178-7.452-7.209-11.362-7.087c-3.909,0.122-14.172-6.841-5.62-8.308
		c8.553-1.467-0.488-4.887-0.488-4.887c-4.031-5.254,1.466-5.62,5.62-2.443c4.153,3.176,5.376,0.366,5.376,0.366
		c9.651-6.231,7.94,0.978,7.94,0.978s-0.977,1.588-4.153,2.932s0,3.666,0,3.666s1.1,0.855,5.986,4.887s6.108,3.665,8.797,2.443
		c2.688-1.222,8.674-1.955,12.583-1.832c3.91,0.121,12.34,1.465,18.326,4.52s7.331,3.055,7.331,3.055s8.43,0,12.461,0
		c4.032,0,5.62,2.555,5.62,2.555L854.415,237.938z"/>
	<path fill="#DD851D" d="M704.631,327.84c0,2.607-3.909,2.607-3.909,0C700.722,325.234,704.631,325.234,704.631,327.84"/>
	<path fill="#DD851D" d="M708.662,324.104c0,0,3.666,1.467,3.788,3.055s0,4.154,0,4.154s0.488,2.81,2.443,2.32
		c1.955-0.488,4.276-4.215,2.443-6.139s-6.354-6.2-6.354-6.2C703.715,319.217,708.662,324.104,708.662,324.104z M751.668,347.561
		h4.765v-3.787l-8.308-6.719h-5.132v4.643L751.668,347.561z M737.007,348.905h13.439l-3.91-2.688h-12.828L737.007,348.905z
		 M724.545,336.321c-6.353-1.589-9.529,0.428-9.529,0.428l-6.292,5.192c-2.851,2.708,2.016,2.321,2.016,2.321l19.548,0.122
		c7.819-0.122,7.758-3.115,7.758-3.115s0.163-0.418,0.795-2.26c1.466-4.277-1.833-1.955-1.833-1.955
		C732.181,341.086,724.545,336.321,724.545,336.321z M704.081,334.57c0,0,2.434,0.56,3.421,0c0,0,0.662-1.792,1.639-2.77
		c0.978-0.977,0-2.576,0-2.576l-2.932-4.266c-2.077-1.955-3.909,0-3.909,0l-4.766,4.521c-0.58,0.466-0.438,2.188,1.1,3.299
		C700.844,334.367,704.081,334.57,704.081,334.57 M681.174,347.684l14.355,0.061l11.301-10.445c0,0-6.354-0.488-10.019-2.932
		c-3.665-2.444-0.244-5.987-0.244-5.987s2.565-2.077,7.086-6.964s8.308-1.1,8.308-1.1l9.163,9.529c0,0,9.896,9.652,14.172,4.521
		c4.276-5.132,15.272-6.109,15.272-6.109l1.1,2.566c-2.566-0.367-13.439,3.176-6.72,3.543c6.72,0.365,11.606,6.719,11.606,6.719
		c7.452,9.529-0.611,10.263-0.611,10.263s-10.507,0-17.471,0s-5.864-1.222-7.452-2.81c-1.589-1.589-4.276-1.589-4.276-1.589
		s-9.651,0-11.484,0c-1.832,0-5.62,0.122-6.598,1.833c-0.977,1.71-4.275,2.565-4.275,2.565h-23.213V347.684z"/>
	<path fill="#DD851D" d="M819.84,364.055v-15.027l-5.742-10.141l0.54,15.658l-2.81,9.53L819.84,364.055z M839.256,348.712
		l9.377,12.624l5.793,4.287l-0.621-4.002l-11.515-13.398l-4.785-3.055L839.256,348.712z M818.954,319.318l0.062,0.917
		c0.214,3.319,6.343,14.538,17.959,20.006c8.063,3.798,9.855,8.054,9.855,8.054l0.662-0.906l-13.633-18.683l-7.839-9.306
		L818.954,319.318z M802.369,295.842L795.986,298l9.529,0.865l2.474,0.295l0.184,17.491l15.791,30.747l2.087,1.123l1.1-0.105
		l-0.265-6.709l-13.531-20.209l-0.162-5.865h9.051v-1.791l-5.956-7.666l-0.978-10.345L802.369,295.842z M803.998,303.09
		c0.163-1.466-1.629-1.791-1.629-1.791h-12.868c0,0-2.444-1.955-1.304-2.933s17.43-6.027,17.43-6.027h12.055
		c0,0,2.118-0.651,2.118,4.479s0.163,8.553,5.05,13.928c4.887,5.376,4.887,5.376,4.887,5.376l30.299,43.005
		c0,0,0.163,3.096-2.932,2.117c-3.096-0.977,6.516,15.639-9.285,3.747c0,0-10.426-12.054-14.01-20.524s-1.781,9.121-1.781,9.121
		s1.629,6.191-6.842,0.979v9.773h12.543l-0.163,3.258h-45.784v-3.421h12.869c0,0,1.954-0.489,3.095-2.28
		c1.141-1.792,2.443-8.797,2.443-8.797l-0.163-19.385c0,0,1.304-1.955-6.353-15.149C803.673,318.565,803.836,304.557,803.998,303.09
		z"/>
	<path fill="#DD851D" d="M813.243,298.428c0,2.605-3.91,2.605-3.91,0C809.333,295.82,813.243,295.82,813.243,298.428"/>
	<path fill="#DD851D" d="M724.789,397.143c0-4.275,0-2.198-3.298-7.696c-3.299-5.497-3.554,0.61-3.554,0.61
		s-3.288,25.779-3.899,30.544c-0.61,4.765,1.466,5.497,1.466,5.497l9.285,4.928C724.789,431.025,724.789,401.42,724.789,397.143z
		 M724.667,437.797c0,0-5.223-3.31-10.263-5.702c-7.004-3.339-6.353-9.54-6.353-9.54s5.131-30.543,5.376-32.029
		c0.244-1.486,0.488-9.756,6.597-8.287c6.109,1.469,9.53,12.197,9.53,12.197v60.129h-4.643L724.667,437.797z"/>
	<path fill="#DD851D" d="M776.407,410.033c4.032-0.611,9.103,5.436,13.256,8.612c4.154,3.175,10.568,3.36,16.188,0.489
		c4.856-2.484,16.555-0.855,16.555-0.855l7.94,2.321c0,0-3.787-1.67-4.765-2.749c-0.977-1.079-15.353-3.91-23.66-0.611
		c-8.309,3.299-12.869-3.115-16.046-5.6c-3.177-2.494-3.543-2.667-5.498-3.93c-1.242-0.794-3.176-0.061-3.176-0.061
		S772.376,410.644,776.407,410.033z M854.415,424.815c0,0-15.638,4.347-27.122-1.028s-19.304-1.222-19.304-1.222
		c-5.742,3.788-17.104,2.321-19.792-0.854c-2.688-3.178-7.452-7.209-11.362-7.087c-3.909,0.122-14.172-6.841-5.62-8.308
		c8.553-1.467-0.488-4.887-0.488-4.887c-4.031-5.254,1.466-5.62,5.62-2.443c4.153,3.176,5.376,0.366,5.376,0.366
		c9.651-6.231,7.94,0.978,7.94,0.978s-0.977,1.588-4.153,2.932s0,3.666,0,3.666s1.1,0.855,5.986,4.887s6.108,3.665,8.797,2.443
		c2.688-1.222,8.674-1.955,12.583-1.832c3.91,0.121,12.34,1.465,18.326,4.52s7.331,3.055,7.331,3.055s8.43,0,12.461,0
		c4.032,0,5.62,2.555,5.62,2.555L854.415,424.815z"/>
	<path fill="#DD851D" d="M499.584,327.84c0,2.607-3.909,2.607-3.909,0C495.675,325.234,499.584,325.234,499.584,327.84"/>
	<path fill="#DD851D" d="M503.615,324.104c0,0,3.666,1.467,3.788,3.055s0,4.154,0,4.154s0.488,2.81,2.443,2.32
		c1.955-0.488,4.276-4.215,2.443-6.139s-6.354-6.2-6.354-6.2C498.668,319.217,503.615,324.104,503.615,324.104z M546.621,347.561
		h4.765v-3.787l-8.308-6.719h-5.132v4.643L546.621,347.561z M531.96,348.905h13.439l-3.91-2.688h-12.828L531.96,348.905z
		 M519.498,336.321c-6.353-1.589-9.529,0.428-9.529,0.428l-6.292,5.192c-2.851,2.708,2.016,2.321,2.016,2.321l19.548,0.122
		c7.819-0.122,7.758-3.115,7.758-3.115s0.163-0.418,0.795-2.26c1.466-4.277-1.833-1.955-1.833-1.955
		C527.134,341.086,519.498,336.321,519.498,336.321z M499.034,334.57c0,0,2.434,0.56,3.421,0c0,0,0.662-1.792,1.639-2.77
		c0.978-0.977,0-2.576,0-2.576l-2.932-4.266c-2.077-1.955-3.909,0-3.909,0l-4.766,4.521c-0.58,0.466-0.438,2.188,1.1,3.299
		C495.797,334.367,499.034,334.57,499.034,334.57 M476.127,347.684l14.355,0.061l11.301-10.445c0,0-6.354-0.488-10.019-2.932
		c-3.665-2.444-0.244-5.987-0.244-5.987s2.565-2.077,7.086-6.964s8.308-1.1,8.308-1.1l9.163,9.529c0,0,9.896,9.652,14.172,4.521
		c4.276-5.132,15.272-6.109,15.272-6.109l1.1,2.566c-2.566-0.367-13.439,3.176-6.72,3.543c6.72,0.365,11.606,6.719,11.606,6.719
		c7.452,9.529-0.611,10.263-0.611,10.263s-10.507,0-17.471,0s-5.864-1.222-7.452-2.81c-1.589-1.589-4.276-1.589-4.276-1.589
		s-9.651,0-11.484,0c-1.832,0-5.62,0.122-6.598,1.833c-0.977,1.71-4.275,2.565-4.275,2.565h-23.213V347.684z"/>
	<path fill="#DD851D" d="M614.793,364.055v-15.027l-5.742-10.141l0.54,15.658l-2.81,9.53L614.793,364.055z M634.209,348.712
		l9.377,12.624l5.793,4.287l-0.621-4.002l-11.515-13.398l-4.785-3.055L634.209,348.712z M613.907,319.318l0.062,0.917
		c0.214,3.319,6.343,14.538,17.959,20.006c8.063,3.798,9.855,8.054,9.855,8.054l0.662-0.906l-13.633-18.683l-7.839-9.306
		L613.907,319.318z M597.322,295.842L590.939,298l9.529,0.865l2.474,0.295l0.184,17.491l15.791,30.747l2.087,1.123l1.1-0.105
		l-0.265-6.709l-13.531-20.209l-0.162-5.865h9.051v-1.791l-5.956-7.666l-0.978-10.345L597.322,295.842z M598.951,303.09
		c0.163-1.466-1.629-1.791-1.629-1.791h-12.868c0,0-2.444-1.955-1.304-2.933s17.43-6.027,17.43-6.027h12.055
		c0,0,2.118-0.651,2.118,4.479s0.163,8.553,5.05,13.928c4.887,5.376,4.887,5.376,4.887,5.376l30.299,43.005
		c0,0,0.163,3.096-2.932,2.117c-3.096-0.977,6.516,15.639-9.285,3.747c0,0-10.426-12.054-14.01-20.524s-1.781,9.121-1.781,9.121
		s1.629,6.191-6.842,0.979v9.773h12.543l-0.163,3.258h-45.784v-3.421h12.869c0,0,1.954-0.489,3.095-2.28
		c1.141-1.792,2.443-8.797,2.443-8.797l-0.163-19.385c0,0,1.304-1.955-6.353-15.149C598.626,318.565,598.789,304.557,598.951,303.09
		z"/>
	<path fill="#DD851D" d="M608.196,298.428c0,2.605-3.91,2.605-3.91,0C604.286,295.82,608.196,295.82,608.196,298.428"/>
	<path fill="#DD851D" d="M519.742,397.143c0-4.275,0-2.198-3.298-7.696c-3.299-5.497-3.554,0.61-3.554,0.61
		s-3.288,25.779-3.899,30.544c-0.61,4.765,1.466,5.497,1.466,5.497l9.285,4.928C519.742,431.025,519.742,401.42,519.742,397.143z
		 M519.62,437.797c0,0-5.223-3.31-10.263-5.702c-7.004-3.339-6.353-9.54-6.353-9.54s5.131-30.543,5.376-32.029
		c0.244-1.486,0.488-9.756,6.597-8.287c6.109,1.469,9.53,12.197,9.53,12.197v60.129h-4.643L519.62,437.797z"/>
	<path fill="#DD851D" d="M571.36,410.033c4.032-0.611,9.103,5.436,13.256,8.612c4.154,3.175,10.568,3.36,16.188,0.489
		c4.856-2.484,16.555-0.855,16.555-0.855l7.94,2.321c0,0-3.787-1.67-4.765-2.749c-0.977-1.079-15.353-3.91-23.66-0.611
		c-8.309,3.299-12.869-3.115-16.046-5.6c-3.177-2.494-3.543-2.667-5.498-3.93c-1.242-0.794-3.176-0.061-3.176-0.061
		S567.329,410.644,571.36,410.033z M649.368,424.815c0,0-15.638,4.347-27.122-1.028s-19.304-1.222-19.304-1.222
		c-5.742,3.788-17.104,2.321-19.792-0.854c-2.688-3.178-7.452-7.209-11.362-7.087c-3.909,0.122-14.172-6.841-5.62-8.308
		c8.553-1.467-0.488-4.887-0.488-4.887c-4.031-5.254,1.466-5.62,5.62-2.443c4.153,3.176,5.376,0.366,5.376,0.366
		c9.651-6.231,7.94,0.978,7.94,0.978s-0.977,1.588-4.153,2.932s0,3.666,0,3.666s1.1,0.855,5.986,4.887s6.108,3.665,8.797,2.443
		c2.688-1.222,8.674-1.955,12.583-1.832c3.91,0.121,12.34,1.465,18.326,4.52s7.331,3.055,7.331,3.055s8.43,0,12.461,0
		c4.032,0,5.62,2.555,5.62,2.555L649.368,424.815z"/>
</g>
<path fill="#DD851D" d="M90.881,132.746c-7.553,0.731-14.766,3.256-21.909,5.667c-5.143,1.722-10.117,4.05-14.51,7.255
	c-0.947,0.722-1.515,1.989-1.061,3.153c0.617,1.495,1.937,2.968,3.658,3.03c1.689-0.145,2.979-1.412,4.576-1.876
	c5.771-2.03,11.47-4.369,17.445-5.758c7.36-2.032,14.912-3.526,22.569-3.691c7.544-0.412,15.118-0.237,22.628,0.474
	c6.358,0.722,12.822,1.433,18.829,3.792c7.688,2.577,15.014,6.05,22.537,9.018c5.833,2.442,11.769,4.75,17.981,5.997
	c8.988,1.999,18.18,2.947,27.353,3.38c4.428,0.186,8.881,0.248,13.312-0.185c0.123-1.907-0.104-3.938-1.174-5.575
	c-3.164-0.228-6.326-0.206-9.492-0.31c-7.191-0.474-14.414-0.979-21.485-2.463c-10.13-2.144-19.385-6.945-29.019-10.562
	c-7.627-2.896-14.819-6.956-22.796-8.862C124.115,131.705,107.357,131.241,90.881,132.746z"/>
<path fill="#DD851D" d="M90.881,132.746c16.477-1.505,33.234-1.052,49.433,2.473c7.978,1.906,15.18,5.967,22.796,8.862
	c9.634,3.617,18.89,8.43,29.02,10.563c7.07,1.483,14.293,1.988,21.487,2.463c3.162,0.103,6.326,0.082,9.488,0.309
	c1.072,1.636,1.299,3.669,1.178,5.575c-4.423,0.433-8.876,0.371-13.314,0.186c-9.184-0.433-18.363-1.381-27.35-3.38
	c-6.226-1.247-12.161-3.556-17.983-5.998c-7.521-2.968-14.85-6.44-22.538-9.017c-6.008-2.36-12.468-3.071-18.828-3.792
	c-7.51-0.712-15.084-0.887-22.63-0.475c-7.655,0.165-15.197,1.659-22.565,3.689c-5.979,1.391-11.677,3.73-17.449,5.761
	c-1.596,0.474-2.883,1.731-4.574,1.875c-1.72-0.062-3.031-1.535-3.658-3.029c-0.465-1.165,0.102-2.433,1.062-3.153
	c4.39-3.205,9.365-5.534,14.51-7.255C76.123,136.013,83.328,133.487,90.881,132.746z"/>
<path fill="#DD851D" d="M89.313,196.967c-7.018-0.288-14.034-0.824-21.002-1.68c-1.78-0.134-3.585-0.278-5.283-0.845
	c2.872-3.854,6.386-7.183,9.212-11.078c3.06-4.431,7.294-8.131,12.304-10.182c-1.34,4.349-1.33,9.12,0.195,13.417
	c1.493,4.287,4.493,7.997,8.265,10.512C91.778,197.05,90.552,197.008,89.313,196.967z M121.96,190.506
	c3.372-5.358,3.887-12.242,1.795-18.168c4.967,1.144,9.956,2.381,14.653,4.421c3.536,1.505,7.276,3.205,9.49,6.503
	c-1.504,2.586-4.028,4.39-6.543,5.904c-7.534,4.297-16.229,5.904-24.732,6.967C118.922,194.844,120.56,192.67,121.96,190.506z
	 M223.796,225.11c-0.691-3.068-2.328-6.019-4.936-7.843c-3.309-2.391-7.904-2.762-11.584-1.03c-3.369,1.722-5.554,5.462-5.503,9.224
	c-0.061,4.328,3.599,8.625,8.092,8.452c3.676,0.297,7.066-3.298,6.439-6.948c-0.319-2.318-2.535-4.287-4.916-3.938
	c-2.009,0.136-3.247,2.784-1.906,4.351c0.496,0.402,1.535,0.938,1.918,0.145c-0.053-0.742-0.671-1.731,0.134-2.268
	c1.121-0.205,2.195,0.619,2.462,1.701c0.496,2.236-1.412,4.645-3.72,4.606c-1.67-0.093-3.351-0.855-4.298-2.265
	c-2.318-3.177-1.152-8.206,2.287-10.071c3.535-1.999,8.329-0.628,10.677,2.577c2.01,2.648,2.259,6.151,2.112,9.367
	c-0.03,3.256-1.286,6.492-3.534,8.872c-4.121,4.545-10.066,6.904-15.952,8.162c-10.368,2.153-21.269,0.607-30.998-3.414
	c-9.562-3.872-18.775-8.581-27.712-13.744c-10.612-6.183-20.682-13.355-29.77-21.641c-1.691-1.535-3.227-3.246-4.4-5.204
	c0.411-0.402,0.844-0.835,1.442-0.938c3.143-0.783,6.39-1.031,9.563-1.618c3.864-0.708,7.698-1.546,11.481-2.607
	c6.283-1.733,12.282-4.297,18.354-6.636c1.772-0.67,3.418-1.629,5.109-2.463c5.453-1.484,11.026,0.247,16.541,0.175
	c12.509,0.618,25.072,0.453,37.53,1.865c4.637,0.484,9.307,0.68,13.913,1.442c0.131-2.267,0.267-4.523,0.244-6.801
	c-0.018-0.536-0.05-1.381-0.772-1.392c-2.422-0.165-4.833,0.113-7.263,0.072c-8.616-0.093-17.211-0.845-25.807-1.36
	c-5.46-0.443-10.942-0.475-16.385-1.051c-5.099-0.557-10.12-1.711-14.971-3.359c-4.815-1.678-8.68-5.184-13.347-7.132
	c-11.688-5.121-24.186-8.45-36.912-9.408c-4.69-0.186-9.389,0.011-14.045,0.536c-3.535,0.412-6.925,1.494-10.286,2.606
	c-2.245,0.681-4.472,1.536-6.419,2.865c-2.34,1.587-4.091,3.844-5.864,6.019c-3.06,3.864-5.864,7.924-9.038,11.706
	c-2.481,3.009-5.298,5.72-8.038,8.481c-1.164,1.247-2.514,2.493-2.989,4.194c-0.153,0.711,0.528,1.195,0.908,1.71
	c2.195,0.454,4.431,0.052,6.647,0.124c4.532-0.062,9.233-0.742,13.652,0.659c1.312,0.382,2.836,1.216,2.824,2.793
	c0.186,4.111,0.455,8.233,0.093,12.346c-0.194,2.793-2.896,4.544-3.247,7.296c-0.617,2.638,0.826,5.05,2.084,7.234
	c1.473,3.112,1.997,6.554,2.915,9.852c0.989,3.534,1.897,7.11,2.482,10.748c0.352,1.741,0.6,3.556,1.475,5.132
	c0.277,0.566,0.844,0.989,1.476,1.082c1.546,0.217,3.194-0.093,4.471-1.021c0.186-0.886,0.362-1.772,0.412-2.671
	c0.361-6.954,0.648-13.91,0.968-20.865c0.372-2.989,0.217-6.225,1.741-8.935c0.188-0.67,0.341-1.351,0.372-2.051
	c0.237-5.575-0.135-11.161,0.288-16.735c1.712,0.535,3.204,1.576,4.637,2.627c3.093,2.268,6.039,4.73,9.11,7.028
	c12.173,9.048,25.25,16.798,38.645,23.867c6.203,3.184,12.461,6.316,19.046,8.656c6.655,2.784,13.611,5.069,20.825,5.771
	c8.718,0.958,17.774,0.175,25.938-3.164c5.329-2.246,10.377-5.791,13.201-10.964C224.25,235.446,224.796,230.077,223.796,225.11z"/>
<path fill="#DD851D" d="M909.338,138.513c-0.988,1.52-1.273,3.398-1.105,5.18c0.332,3.23,0.879,6.477,2.086,9.512
	c1.16,2.957,2.945,5.609,4.742,8.207c3.434-4.836,5.852-10.492,6.441-16.43c0.203-2.27,0.102-4.73-1.18-6.699
	c-1.246-1.977-3.684-2.992-5.977-2.812C912.342,135.673,910.424,136.802,909.338,138.513z M906.83,134.372
	c1.992-2.388,5.012-3.883,8.113-4.023c2.121,0.035,4.227,0.684,6.02,1.809c2.109,1.312,3.734,3.371,4.48,5.742
	c0.91,2.773,0.637,5.758,0.102,8.578c-1.195,6.047-4.289,11.629-8.469,16.125c5.523-0.855,11.055-1.664,16.578-2.504v7.258
	c-5.637-0.352-11.266-0.789-16.902-1.109c1.074,9.254,2.141,18.512,3.215,27.766c0.062,0.492,0.141,0.984,0.102,1.484h-10.152
	c1.117-9.754,2.273-19.496,3.387-29.246c-5.195,0.328-10.383,0.746-15.578,1.121c-0.395,0.016-0.809,0.109-1.195-0.027v-7.328
	c0.5,0.035,1,0.109,1.496,0.191c4.938,0.77,9.879,1.52,14.816,2.293c-4.688-4.863-7.719-11.301-8.465-18.02
	c-0.137-1.309-0.25-2.633-0.086-3.945C904.514,138.294,905.365,136.095,906.83,134.372z"/>
</svg>
